<?xml version="1.0" encoding="UTF-8" standalone="no"?>
<!-- Created with Inkscape (http://www.inkscape.org/) -->

<svg
        xmlns:dc="http://purl.org/dc/elements/1.1/"
        xmlns:cc="http://creativecommons.org/ns#"
        xmlns:rdf="http://www.w3.org/1999/02/22-rdf-syntax-ns#"
        xmlns="http://www.w3.org/2000/svg"
        xmlns:sodipodi="http://sodipodi.sourceforge.net/DTD/sodipodi-0.dtd"
        xmlns:inkscape="http://www.inkscape.org/namespaces/inkscape"
        version="1.1"
        id="svg30"
        width="1000"
        height="700.24304"
        viewBox="0 0 124.8 109.44"
        sodipodi:docname="icon.svg"
        inkscape:version="0.92.3 (2405546, 2018-03-11)">
    <metadata
            id="metadata36">
        <rdf:RDF>
            <cc:Work
                    rdf:about="">
                <dc:format>image/svg+xml</dc:format>
                <dc:type
                        rdf:resource="http://purl.org/dc/dcmitype/StillImage"/>
                <dc:title></dc:title>
            </cc:Work>
        </rdf:RDF>
    </metadata>
    <sodipodi:namedview
            pagecolor="#ffffff"
            bordercolor="#666666"
            borderopacity="1"
            objecttolerance="10"
            gridtolerance="10"
            guidetolerance="10"
            inkscape:pageopacity="0"
            inkscape:pageshadow="2"
            inkscape:window-width="1920"
            inkscape:window-height="1027"
            id="namedview32"
            showgrid="false"
            inkscape:zoom="3.0496564"
            inkscape:cx="68.133608"
            inkscape:cy="32.517013"
            inkscape:window-x="-8"
            inkscape:window-y="-8"
            inkscape:window-maximized="1"
            inkscape:current-layer="svg30"/>
    <path
            fill="#e30613"
            d="m 17.233274,30.313064 -2.862136,-0.109187 -1.004467,-1.459942 c -1.243006,-1.806648 -2.638683,-4.771797 -2.415802,-5.132427 0.09121,-0.14758 5.210974,-0.272846 11.377256,-0.278369 11.801027,-0.01057 18.724521,-0.344082 19.870061,-0.957156 0.409786,-0.219311 0.686676,-0.691073 0.686676,-1.16995 0,-0.909195 -0.754462,-2.185608 -7.61799,-12.8882569 C 32.569507,4.1116369 30.462556,0.57025443 30.584759,0.44803698 30.706963,0.32581951 34.362787,0.22582339 38.708812,0.22582339 h 7.901866 l 5.363277,7.54183331 c 2.949804,4.1480083 6.397314,9.0700563 7.661129,10.9378843 2.703596,3.99571 2.869533,3.203553 -1.778565,8.490534 L 54.901632,30.55711 37.498521,30.489681 C 27.926809,30.452594 18.807448,30.373117 17.233274,30.313064 Z"
            id="path84"
            inkscape:connector-curvature="0"/>
    <path
            fill="#17243e"
            d="M 7.0729994,38.145822 C 6.0425123,36.740709 5.113295,35.366721 5.0080718,35.092514 4.7076993,34.309756 9.4343319,34.169606 36.982558,34.144437 c 29.629653,-0.02707 36.024645,-0.230839 37.312735,-1.188927 1.876204,-1.395528 1.964136,-1.232563 -7.124357,-13.203535 -3.348017,-4.409864 -6.280118,-8.283251 -6.515777,-8.607527 -0.409305,-0.563211 -0.06268,-0.589592 7.746791,-0.589592 h 8.175265 l 2.090383,2.69968 c 1.14971,1.484824 4.776178,6.458398 8.058816,11.052387 l 5.968437,8.352708 -1.196981,1.490009 c -0.65834,0.819505 -2.216197,2.633581 -3.461905,4.031279 l -2.264924,2.54127 -38.412216,-0.01081 -38.4122129,-0.01081 z"
            id="path92"
            inkscape:connector-curvature="0"/>
    <path   fill="#dcaa75"
            d="M 3.211298,51.297151 C 1.3854387,48.822601 0.41838394,47.009762 0.74820349,46.67984 0.86878085,46.559226 23.420815,46.366698 50.863836,46.252001 101.39475,46.04081 104.64742,45.956667 106.38886,44.815635 c 1.06533,-0.69803 0.95948,-1.493888 -0.44297,-3.330541 -3.58708,-4.697671 -12.212981,-16.162089 -12.873767,-17.110122 -0.628422,-0.901603 -0.684254,-1.151633 -0.310074,-1.388579 0.250995,-0.158939 4.071514,-0.285156 8.490041,-0.280482 l 8.0337,0.0085 3.27905,4.634803 c 5.74875,8.125598 10.35975,14.80651 11.1953,16.22093 0.80392,1.360894 0.80572,1.38209 0.21522,2.533104 -0.32752,0.638399 -1.76639,2.566198 -3.19748,4.283997 l -2.60199,3.123271 H 61.510164 4.8444397 Z"
            id="path88"
            inkscape:connector-curvature="0"/>
    <path   fill="#dcaa75"
            d="m 94.120143,86.715161 c -0.946828,-0.06624 -1.721506,-0.204651 -1.721506,-0.307585 0,-0.281934 2.498655,-3.741424 8.581123,-11.880921 3.01994,-4.041242 5.63531,-7.76227 5.81194,-8.268953 0.53699,-1.540422 -0.39164,-2.322941 -3.11563,-2.625396 C 102.43306,63.494289 86.955401,63.357814 69.281279,63.329029 32.276437,63.26876 1.0650782,62.954039 0.74943937,62.637985 0.45000491,62.338157 1.0172339,61.319664 3.1391461,58.347126 l 1.8140564,-2.54127 56.5930205,0.0028 56.593017,0.0028 2.2198,2.717795 c 2.56446,3.139764 3.66965,4.71362 3.9593,5.638283 0.23334,0.74485 -1.74734,3.793561 -10.09438,15.53758 l -5.15425,7.251872 -6.61403,-0.06066 c -3.63772,-0.03336 -7.388709,-0.114852 -8.335537,-0.181089 z"
            id="path90"
            inkscape:connector-curvature="0"/>
    <path
            fill="#17243e"
            d="m 61.792405,98.800061 -1.258663,-0.202499 6.299031,-8.361598 c 7.531763,-9.997979 8.514763,-11.420654 8.514763,-12.323245 0,-1.147355 -1.086188,-1.801335 -3.493738,-2.103534 C 70.619259,75.654224 55.369875,75.446963 37.966275,75.348606 20.562675,75.250249 5.9913611,75.074854 5.5855776,74.95884 5.1797942,74.842825 4.8489905,74.654445 4.8504583,74.540219 4.851926,74.425992 5.8096932,73.041404 6.9788298,71.463358 l 2.125703,-2.869176 H 47.405693 85.70685 l 1.959844,2.213364 c 1.077912,1.21735 2.66087,3.044968 3.517682,4.061373 l 1.557841,1.848008 -7.829764,11.104271 -7.829764,11.10427 -7.01581,0.03855 c -3.858698,0.0212 -7.582209,-0.05258 -8.274474,-0.163953 z"
            id="path94"
            inkscape:connector-curvature="0"/>
    <path
            fill="#e30613"
            d="m 30.654582,109.04743 c -0.291522,-0.29152 -0.03297,-0.73267 5.163687,-8.81034 5.685428,-8.837418 6.738687,-10.669633 6.738687,-11.722396 0,-1.768609 -0.315211,-1.807327 -17.952964,-2.205214 -7.259082,-0.163756 -13.344736,-0.388221 -13.523675,-0.498812 -0.376268,-0.232546 0.498357,-2.071204 2.215375,-4.657221 l 1.154215,-1.738374 h 20.400966 20.400966 l 2.276853,2.54127 c 1.252269,1.397699 2.768889,3.162569 3.370265,3.921935 l 1.093412,1.380666 -1.723388,2.554204 c -0.947864,1.404812 -4.398597,6.352334 -7.668297,10.994492 l -5.944905,8.44029 -7.897065,0.003 c -4.343386,0.002 -7.990245,-0.0899 -8.104132,-0.20378 z"
            id="path86"
            inkscape:connector-curvature="0"/>


</svg>